<?xml version="1.0" encoding="utf-8"?>
<!-- Svg Vector Icons : http://www.onlinewebfonts.com/icon -->
<!DOCTYPE svg PUBLIC "-//W3C//DTD SVG 1.1//EN" "http://www.w3.org/Graphics/SVG/1.1/DTD/svg11.dtd">
<svg version="1.1" xmlns="http://www.w3.org/2000/svg" xmlns:xlink="http://www.w3.org/1999/xlink" x="0px" y="0px" viewBox="0 0 256 256" enable-background="new 0 0 256 256" xml:space="preserve">
<metadata> Svg Vector Icons : http://www.onlinewebfonts.com/icon </metadata>
<g><g><g><path fill="#000000" d="M136.1,60.7c-0.8,0.1-3.8,0.5-6.6,0.8c-2.7,0.3-7.8,1.2-11.1,1.9C96.1,68.3,75,78.1,56.5,92.2c-2.7,2.1-4.1,2.8-3.8,2.2c0.8-2.3,4.9-8.8,7.2-11.8c1.6-2,2.6-3.7,2.6-4.5c0-2-4.2-6.2-7.5-7.7c-2.6-1.2-3.3-1.3-18.4-1.4l-15.7-0.2l-1.3,1.3c-0.7,0.7-1.3,1.8-1.3,2.5s3,9.5,6.6,19.6c3.6,10.1,6.6,18.4,6.6,18.5c0,0.1-3.6,0.3-8.1,0.4c-8.9,0.2-9.6,0.4-12.1,3.8c-1.5,2.1-1.5,7,0,9.1c2.5,3.4,3.3,3.6,12.1,3.8c4.5,0.1,8.1,0.3,8.1,0.3c0,0.1-3,8.4-6.6,18.6c-3.6,10.1-6.6,18.9-6.6,19.6c0,0.7,0.6,1.8,1.3,2.5l1.3,1.3L36,170c15.1-0.2,15.1-0.2,18.1-1.6c4.1-1.9,7.4-5.2,9.4-9c1.9-3.8,2.5-4.6,3.5-4.6c0.4,0,3.7,1.7,7.4,3.7c8.1,4.6,18.5,9.3,28.1,12.6l7.2,2.5l2,7.5c2.3,9.1,3.5,11.2,7.5,13l2.8,1.3l23.6-0.2l23.6-0.2l2-1.2c3.3-2.1,4.4-4.1,6.4-11.7c1-3.9,2-7.2,2.2-7.4c0.2-0.2,3.4-1.3,7-2.3c38.7-11.1,62.6-34.9,58.6-58.1c-2-11.3-9.9-22.3-22.7-31.4c-14.1-10.1-36.7-18.4-58-21.3C159,60.9,139.4,60.2,136.1,60.7z M162.3,77.6c24,3.3,44.7,12.1,57.4,24.4c4.3,4.2,4.9,5.5,3.3,7.1c-1.1,1.1-1.6,1.1-7.4-0.2c-18.6-4.1-40.3-6-68.5-6c-28,0-53.1,2.6-77.5,8c-7.8,1.7-8.8,1.7-8.8-0.7c0-1.8,9.9-9.3,20.4-15.4c17.6-10.2,38.1-16.9,56.4-18.4C142.4,76.2,156.4,76.7,162.3,77.6z M201.5,141.9c0,2-0.7,2.3-9.5,4.7c-18.6,5.1-40.4,7.4-57.7,6.1c-16.6-1.3-30.6-4-41.3-8c-3.2-1.2-4.1-2.3-2.9-3.4c0.6-0.6,1.9-0.6,8.7,0.3c23.3,3,52.3,3.7,71.2,2c10.5-1,26.6-3,27.4-3.3c0.3-0.1,1.4-0.2,2.4-0.1C201.3,140.3,201.5,140.4,201.5,141.9z M132.1,182.7v4.2h-4.2h-4.2v-4.2v-4.2h4.2h4.2L132.1,182.7L132.1,182.7z M149,182.7v4.2h-4.2h-4.2v-4.2v-4.2h4.2h4.2V182.7z M165.9,182.7v4.2h-4.2h-4.2v-4.2v-4.2h4.2h4.2V182.7z"/></g></g></g>
</svg>